<mxfile host="app.diagrams.net" modified="2022-07-17T03:37:24.202Z" agent="5.0 (Macintosh; Intel Mac OS X 10_15_7) AppleWebKit/537.36 (KHTML, like Gecko) Chrome/103.0.0.0 Safari/537.36" etag="xvyLi6pQk1d_6A_I6Xq_" version="20.1.1" type="github">
  <diagram id="3228e29e-7158-1315-38df-8450db1d8a1d" name="Page-1">
    <mxGraphModel dx="1854" dy="999" grid="0" gridSize="10" guides="1" tooltips="1" connect="1" arrows="1" fold="1" page="1" pageScale="1" pageWidth="1500" pageHeight="800" background="#EFF1F3" math="0" shadow="0">
      <root>
        <mxCell id="0" />
        <mxCell id="1" parent="0" />
        <mxCell id="PNogIBSBwXJLe9Jx7B5x-2" value="&lt;span style=&quot;color: rgb(0, 0, 0); font-size: 39px;&quot;&gt;TCP、UDP&lt;/span&gt;" style="rounded=1;whiteSpace=wrap;html=1;fontColor=#4A919B;fillColor=none;strokeWidth=5;dashed=1;" parent="1" vertex="1">
          <mxGeometry x="943" y="309.5" width="278" height="121" as="geometry" />
        </mxCell>
        <mxCell id="FyYvvIjHZ3Y8gI8X0XbX-5" value="&lt;font style=&quot;font-size: 50px&quot;&gt;应用层&lt;/font&gt;" style="rounded=1;whiteSpace=wrap;html=1;strokeWidth=5;fontColor=none;fillColor=#9AC7BF;strokeColor=none;" parent="1" vertex="1">
          <mxGeometry x="297" y="105" width="290" height="170" as="geometry" />
        </mxCell>
        <mxCell id="FyYvvIjHZ3Y8gI8X0XbX-6" value="&lt;font style=&quot;font-size: 50px&quot;&gt;传输层&lt;/font&gt;" style="rounded=1;whiteSpace=wrap;html=1;strokeWidth=5;fontColor=none;fillColor=#FDD276;strokeColor=none;" parent="1" vertex="1">
          <mxGeometry x="297" y="305" width="290" height="130" as="geometry" />
        </mxCell>
        <mxCell id="FyYvvIjHZ3Y8gI8X0XbX-8" value="&lt;span style=&quot;font-size: 50px&quot;&gt;网络层&lt;/span&gt;" style="rounded=1;whiteSpace=wrap;html=1;strokeWidth=5;fontColor=none;fillColor=#F19C99;strokeColor=none;" parent="1" vertex="1">
          <mxGeometry x="297" y="475" width="290" height="120" as="geometry" />
        </mxCell>
        <mxCell id="FyYvvIjHZ3Y8gI8X0XbX-9" value="&lt;span style=&quot;font-size: 50px&quot;&gt;网络接口层&lt;/span&gt;" style="rounded=1;whiteSpace=wrap;html=1;strokeWidth=5;fontColor=none;fillColor=#5A6EAB;strokeColor=none;" parent="1" vertex="1">
          <mxGeometry x="297" y="635" width="290" height="130" as="geometry" />
        </mxCell>
        <mxCell id="uhh944_df_AJf7MUhFY7-5" value="&lt;font style=&quot;font-size: 50px&quot;&gt;四层网络&lt;/font&gt;" style="text;html=1;strokeColor=none;fillColor=none;align=center;verticalAlign=middle;whiteSpace=wrap;rounded=0;" parent="1" vertex="1">
          <mxGeometry x="317" y="35" width="250" height="20" as="geometry" />
        </mxCell>
        <mxCell id="PNogIBSBwXJLe9Jx7B5x-3" value="" style="shape=flexArrow;endArrow=classic;html=1;fontColor=#4A919B;endWidth=60;endSize=20.391666666666666;width=35;strokeColor=#FDD276;fillColor=#FDD276;" parent="1" edge="1">
          <mxGeometry width="50" height="50" relative="1" as="geometry">
            <mxPoint x="834" y="368.2900000000001" as="sourcePoint" />
            <mxPoint x="696" y="368.2900000000001" as="targetPoint" />
          </mxGeometry>
        </mxCell>
        <mxCell id="PNogIBSBwXJLe9Jx7B5x-4" value="&lt;span style=&quot;color: rgb(0, 0, 0); font-size: 39px;&quot;&gt;HTTP、gRPC&lt;/span&gt;" style="rounded=1;whiteSpace=wrap;html=1;fontColor=#4A919B;fillColor=none;strokeWidth=5;dashed=1;" parent="1" vertex="1">
          <mxGeometry x="943" y="132" width="278" height="121" as="geometry" />
        </mxCell>
        <mxCell id="PNogIBSBwXJLe9Jx7B5x-6" value="" style="shape=flexArrow;endArrow=classic;html=1;fontColor=#4A919B;endWidth=60;endSize=20.391666666666666;width=35;fillColor=#9AC7BF;strokeColor=#9AC7BF;" parent="1" edge="1">
          <mxGeometry width="50" height="50" relative="1" as="geometry">
            <mxPoint x="834" y="191.78999999999994" as="sourcePoint" />
            <mxPoint x="696" y="191.78999999999994" as="targetPoint" />
          </mxGeometry>
        </mxCell>
      </root>
    </mxGraphModel>
  </diagram>
</mxfile>
